<mxfile host="app.diagrams.net" modified="2023-07-24T20:41:09.921Z" agent="Mozilla/5.0 (Windows NT 10.0; Win64; x64) AppleWebKit/537.36 (KHTML, like Gecko) Chrome/115.0.0.0 Safari/537.36" etag="P_61XQM4oeF3xpo29feu" version="21.6.5" type="device">
  <diagram name="Página-1" id="qBSSXRKxBomLlhVmfmv1">
    <mxGraphModel dx="880" dy="522" grid="1" gridSize="10" guides="1" tooltips="1" connect="1" arrows="1" fold="1" page="1" pageScale="1" pageWidth="827" pageHeight="1169" math="0" shadow="0">
      <root>
        <mxCell id="0" />
        <mxCell id="1" parent="0" />
        <mxCell id="nSm_Fh-NACfpATgbBI2l-1" value="&lt;div style=&quot;font-size: 13px;&quot;&gt;&lt;font style=&quot;font-size: 13px;&quot;&gt;Uma clínica veterinária deseja cadastrar os pets que são atendidos em seu local.&lt;/font&gt;&lt;/div&gt;&lt;div style=&quot;font-size: 13px;&quot;&gt;&lt;font style=&quot;font-size: 13px;&quot;&gt;&lt;br&gt;&lt;/font&gt;&lt;/div&gt;&lt;div style=&quot;font-size: 13px;&quot;&gt;&lt;font style=&quot;font-size: 13px;&quot;&gt;- a clínica contém um endereço;&lt;/font&gt;&lt;/div&gt;&lt;div style=&quot;font-size: 13px;&quot;&gt;&lt;font style=&quot;font-size: 13px;&quot;&gt;- os pets deverão ter nome, data de nascimento, tipo de pet;&lt;/font&gt;&lt;/div&gt;&lt;div style=&quot;font-size: 13px;&quot;&gt;&lt;font style=&quot;font-size: 13px;&quot;&gt;- os pets deverão ter raça;&lt;/font&gt;&lt;/div&gt;&lt;div style=&quot;font-size: 13px;&quot;&gt;&lt;font style=&quot;font-size: 13px;&quot;&gt;- os pets deverão ter donos;&lt;/font&gt;&lt;/div&gt;&lt;div style=&quot;font-size: 13px;&quot;&gt;&lt;font style=&quot;font-size: 13px;&quot;&gt;- a clínica deseja cadastrar seus veterinários e todo atendimento de pet será feito por um veterinário;&lt;/font&gt;&lt;/div&gt;" style="text;html=1;align=left;verticalAlign=middle;resizable=0;points=[];autosize=1;strokeColor=none;fillColor=none;" vertex="1" parent="1">
          <mxGeometry x="114" y="20" width="600" height="120" as="geometry" />
        </mxCell>
        <mxCell id="nSm_Fh-NACfpATgbBI2l-2" value="&lt;font style=&quot;font-size: 13px;&quot;&gt;&lt;font style=&quot;font-size: 13px;&quot;&gt;C&lt;/font&gt;línica&lt;/font&gt;" style="swimlane;fontStyle=0;childLayout=stackLayout;horizontal=1;startSize=30;horizontalStack=0;resizeParent=1;resizeParentMax=0;resizeLast=0;collapsible=1;marginBottom=0;whiteSpace=wrap;html=1;" vertex="1" parent="1">
          <mxGeometry x="10" y="200" width="140" height="60" as="geometry" />
        </mxCell>
        <mxCell id="nSm_Fh-NACfpATgbBI2l-3" value="&lt;font style=&quot;font-size: 13px;&quot;&gt;- Endereço&lt;/font&gt;" style="text;strokeColor=none;fillColor=none;align=left;verticalAlign=middle;spacingLeft=4;spacingRight=4;overflow=hidden;points=[[0,0.5],[1,0.5]];portConstraint=eastwest;rotatable=0;whiteSpace=wrap;html=1;" vertex="1" parent="nSm_Fh-NACfpATgbBI2l-2">
          <mxGeometry y="30" width="140" height="30" as="geometry" />
        </mxCell>
        <mxCell id="nSm_Fh-NACfpATgbBI2l-10" value="Pets" style="swimlane;fontStyle=0;childLayout=stackLayout;horizontal=1;startSize=30;horizontalStack=0;resizeParent=1;resizeParentMax=0;resizeLast=0;collapsible=1;marginBottom=0;whiteSpace=wrap;html=1;" vertex="1" parent="1">
          <mxGeometry x="322.5" y="162.5" width="140" height="150" as="geometry" />
        </mxCell>
        <mxCell id="nSm_Fh-NACfpATgbBI2l-11" value="- Nome" style="text;strokeColor=none;fillColor=none;align=left;verticalAlign=middle;spacingLeft=4;spacingRight=4;overflow=hidden;points=[[0,0.5],[1,0.5]];portConstraint=eastwest;rotatable=0;whiteSpace=wrap;html=1;" vertex="1" parent="nSm_Fh-NACfpATgbBI2l-10">
          <mxGeometry y="30" width="140" height="30" as="geometry" />
        </mxCell>
        <mxCell id="nSm_Fh-NACfpATgbBI2l-12" value="- Data de Nascimento" style="text;strokeColor=none;fillColor=none;align=left;verticalAlign=middle;spacingLeft=4;spacingRight=4;overflow=hidden;points=[[0,0.5],[1,0.5]];portConstraint=eastwest;rotatable=0;whiteSpace=wrap;html=1;" vertex="1" parent="nSm_Fh-NACfpATgbBI2l-10">
          <mxGeometry y="60" width="140" height="30" as="geometry" />
        </mxCell>
        <mxCell id="nSm_Fh-NACfpATgbBI2l-13" value="&lt;font style=&quot;font-size: 13px;&quot;&gt;- Tipo&lt;/font&gt;" style="text;strokeColor=none;fillColor=none;align=left;verticalAlign=middle;spacingLeft=4;spacingRight=4;overflow=hidden;points=[[0,0.5],[1,0.5]];portConstraint=eastwest;rotatable=0;whiteSpace=wrap;html=1;" vertex="1" parent="nSm_Fh-NACfpATgbBI2l-10">
          <mxGeometry y="90" width="140" height="30" as="geometry" />
        </mxCell>
        <mxCell id="nSm_Fh-NACfpATgbBI2l-24" value="&lt;font style=&quot;font-size: 13px;&quot;&gt;- Raça&lt;/font&gt;" style="text;strokeColor=none;fillColor=none;align=left;verticalAlign=middle;spacingLeft=4;spacingRight=4;overflow=hidden;points=[[0,0.5],[1,0.5]];portConstraint=eastwest;rotatable=0;whiteSpace=wrap;html=1;" vertex="1" parent="nSm_Fh-NACfpATgbBI2l-10">
          <mxGeometry y="120" width="140" height="30" as="geometry" />
        </mxCell>
        <mxCell id="nSm_Fh-NACfpATgbBI2l-22" value="Veterinário" style="rounded=0;whiteSpace=wrap;html=1;" vertex="1" parent="1">
          <mxGeometry x="332.5" y="440" width="120" height="60" as="geometry" />
        </mxCell>
        <mxCell id="nSm_Fh-NACfpATgbBI2l-31" style="edgeStyle=orthogonalEdgeStyle;rounded=0;orthogonalLoop=1;jettySize=auto;html=1;entryX=1.007;entryY=0.1;entryDx=0;entryDy=0;entryPerimeter=0;endArrow=none;endFill=0;" edge="1" parent="1" source="nSm_Fh-NACfpATgbBI2l-25" target="nSm_Fh-NACfpATgbBI2l-3">
          <mxGeometry relative="1" as="geometry" />
        </mxCell>
        <mxCell id="nSm_Fh-NACfpATgbBI2l-32" style="edgeStyle=orthogonalEdgeStyle;rounded=0;orthogonalLoop=1;jettySize=auto;html=1;entryX=-0.011;entryY=0.317;entryDx=0;entryDy=0;entryPerimeter=0;endArrow=none;endFill=0;" edge="1" parent="1" source="nSm_Fh-NACfpATgbBI2l-25" target="nSm_Fh-NACfpATgbBI2l-12">
          <mxGeometry relative="1" as="geometry" />
        </mxCell>
        <mxCell id="nSm_Fh-NACfpATgbBI2l-25" value="&lt;font style=&quot;font-size: 13px;&quot;&gt;Atende&lt;/font&gt;" style="rhombus;whiteSpace=wrap;html=1;" vertex="1" parent="1">
          <mxGeometry x="200" y="200" width="65" height="65" as="geometry" />
        </mxCell>
        <mxCell id="nSm_Fh-NACfpATgbBI2l-33" style="edgeStyle=orthogonalEdgeStyle;rounded=0;orthogonalLoop=1;jettySize=auto;html=1;entryX=0.504;entryY=1.017;entryDx=0;entryDy=0;entryPerimeter=0;endArrow=none;endFill=0;" edge="1" parent="1" source="nSm_Fh-NACfpATgbBI2l-27" target="nSm_Fh-NACfpATgbBI2l-24">
          <mxGeometry relative="1" as="geometry" />
        </mxCell>
        <mxCell id="nSm_Fh-NACfpATgbBI2l-34" style="edgeStyle=orthogonalEdgeStyle;rounded=0;orthogonalLoop=1;jettySize=auto;html=1;entryX=0.5;entryY=0;entryDx=0;entryDy=0;endArrow=none;endFill=0;" edge="1" parent="1" source="nSm_Fh-NACfpATgbBI2l-27" target="nSm_Fh-NACfpATgbBI2l-22">
          <mxGeometry relative="1" as="geometry" />
        </mxCell>
        <mxCell id="nSm_Fh-NACfpATgbBI2l-27" value="&lt;font style=&quot;font-size: 13px;&quot;&gt;Atende&lt;/font&gt;" style="rhombus;whiteSpace=wrap;html=1;" vertex="1" parent="1">
          <mxGeometry x="360" y="340" width="65" height="65" as="geometry" />
        </mxCell>
        <mxCell id="nSm_Fh-NACfpATgbBI2l-29" style="edgeStyle=orthogonalEdgeStyle;rounded=0;orthogonalLoop=1;jettySize=auto;html=1;entryX=0.479;entryY=1;entryDx=0;entryDy=0;entryPerimeter=0;endArrow=none;endFill=0;" edge="1" parent="1" source="nSm_Fh-NACfpATgbBI2l-28" target="nSm_Fh-NACfpATgbBI2l-3">
          <mxGeometry relative="1" as="geometry">
            <mxPoint x="110" y="290" as="targetPoint" />
          </mxGeometry>
        </mxCell>
        <mxCell id="nSm_Fh-NACfpATgbBI2l-30" style="edgeStyle=orthogonalEdgeStyle;rounded=0;orthogonalLoop=1;jettySize=auto;html=1;endArrow=none;endFill=0;" edge="1" parent="1" source="nSm_Fh-NACfpATgbBI2l-28" target="nSm_Fh-NACfpATgbBI2l-22">
          <mxGeometry relative="1" as="geometry" />
        </mxCell>
        <mxCell id="nSm_Fh-NACfpATgbBI2l-28" value="&lt;span style=&quot;font-size: 13px;&quot;&gt;Trabalha&lt;/span&gt;" style="rhombus;whiteSpace=wrap;html=1;" vertex="1" parent="1">
          <mxGeometry x="57.5" y="420" width="65" height="65" as="geometry" />
        </mxCell>
        <mxCell id="nSm_Fh-NACfpATgbBI2l-35" value="&lt;font style=&quot;font-size: 13px;&quot;&gt;Dono&lt;/font&gt;" style="rounded=0;whiteSpace=wrap;html=1;" vertex="1" parent="1">
          <mxGeometry x="670" y="208" width="120" height="60" as="geometry" />
        </mxCell>
        <mxCell id="nSm_Fh-NACfpATgbBI2l-37" style="edgeStyle=orthogonalEdgeStyle;rounded=0;orthogonalLoop=1;jettySize=auto;html=1;entryX=1;entryY=0.5;entryDx=0;entryDy=0;endArrow=none;endFill=0;" edge="1" parent="1" source="nSm_Fh-NACfpATgbBI2l-36" target="nSm_Fh-NACfpATgbBI2l-12">
          <mxGeometry relative="1" as="geometry" />
        </mxCell>
        <mxCell id="nSm_Fh-NACfpATgbBI2l-38" style="edgeStyle=orthogonalEdgeStyle;rounded=0;orthogonalLoop=1;jettySize=auto;html=1;entryX=0;entryY=0.5;entryDx=0;entryDy=0;endArrow=none;endFill=0;" edge="1" parent="1" source="nSm_Fh-NACfpATgbBI2l-36" target="nSm_Fh-NACfpATgbBI2l-35">
          <mxGeometry relative="1" as="geometry" />
        </mxCell>
        <mxCell id="nSm_Fh-NACfpATgbBI2l-36" value="&lt;span style=&quot;font-size: 13px;&quot;&gt;Cuida&lt;/span&gt;" style="rhombus;whiteSpace=wrap;html=1;" vertex="1" parent="1">
          <mxGeometry x="540" y="205.5" width="65" height="65" as="geometry" />
        </mxCell>
        <mxCell id="nSm_Fh-NACfpATgbBI2l-39" value="&lt;font style=&quot;font-size: 13px;&quot;&gt;1&lt;/font&gt;" style="text;html=1;align=center;verticalAlign=middle;resizable=0;points=[];autosize=1;strokeColor=none;fillColor=none;" vertex="1" parent="1">
          <mxGeometry x="160" y="190" width="30" height="30" as="geometry" />
        </mxCell>
        <mxCell id="nSm_Fh-NACfpATgbBI2l-40" value="&lt;span style=&quot;font-size: 13px;&quot;&gt;N&lt;/span&gt;" style="text;html=1;align=center;verticalAlign=middle;resizable=0;points=[];autosize=1;strokeColor=none;fillColor=none;" vertex="1" parent="1">
          <mxGeometry x="280" y="190" width="30" height="30" as="geometry" />
        </mxCell>
        <mxCell id="nSm_Fh-NACfpATgbBI2l-41" value="&lt;span style=&quot;font-size: 13px;&quot;&gt;N&lt;/span&gt;" style="text;html=1;align=center;verticalAlign=middle;resizable=0;points=[];autosize=1;strokeColor=none;fillColor=none;" vertex="1" parent="1">
          <mxGeometry x="480" y="200" width="30" height="30" as="geometry" />
        </mxCell>
        <mxCell id="nSm_Fh-NACfpATgbBI2l-42" value="&lt;span style=&quot;font-size: 13px;&quot;&gt;1&lt;/span&gt;" style="text;html=1;align=center;verticalAlign=middle;resizable=0;points=[];autosize=1;strokeColor=none;fillColor=none;" vertex="1" parent="1">
          <mxGeometry x="630" y="200" width="30" height="30" as="geometry" />
        </mxCell>
        <mxCell id="nSm_Fh-NACfpATgbBI2l-43" value="&lt;span style=&quot;font-size: 13px;&quot;&gt;1&lt;/span&gt;" style="text;html=1;align=center;verticalAlign=middle;resizable=0;points=[];autosize=1;strokeColor=none;fillColor=none;" vertex="1" parent="1">
          <mxGeometry x="92.5" y="265" width="30" height="30" as="geometry" />
        </mxCell>
        <mxCell id="nSm_Fh-NACfpATgbBI2l-44" value="&lt;span style=&quot;font-size: 13px;&quot;&gt;1&lt;/span&gt;" style="text;html=1;align=center;verticalAlign=middle;resizable=0;points=[];autosize=1;strokeColor=none;fillColor=none;" vertex="1" parent="1">
          <mxGeometry x="414" y="405" width="30" height="30" as="geometry" />
        </mxCell>
        <mxCell id="nSm_Fh-NACfpATgbBI2l-45" value="&lt;span style=&quot;font-size: 13px;&quot;&gt;N&lt;/span&gt;" style="text;html=1;align=center;verticalAlign=middle;resizable=0;points=[];autosize=1;strokeColor=none;fillColor=none;" vertex="1" parent="1">
          <mxGeometry x="414" y="320" width="30" height="30" as="geometry" />
        </mxCell>
        <mxCell id="nSm_Fh-NACfpATgbBI2l-46" value="&lt;span style=&quot;font-size: 13px;&quot;&gt;N&lt;/span&gt;" style="text;html=1;align=center;verticalAlign=middle;resizable=0;points=[];autosize=1;strokeColor=none;fillColor=none;" vertex="1" parent="1">
          <mxGeometry x="290" y="430" width="30" height="30" as="geometry" />
        </mxCell>
        <mxCell id="nSm_Fh-NACfpATgbBI2l-47" value="&lt;span style=&quot;font-size: 13px;&quot;&gt;Relacionamento 1 : N&lt;/span&gt;" style="text;html=1;align=center;verticalAlign=middle;resizable=0;points=[];autosize=1;strokeColor=none;fillColor=none;" vertex="1" parent="1">
          <mxGeometry x="480" y="357.5" width="150" height="30" as="geometry" />
        </mxCell>
      </root>
    </mxGraphModel>
  </diagram>
</mxfile>
